<?xml version="1.0" encoding="utf-8"?>
<svg version="1.1" id="Camada_1" x="0px" y="0px" viewBox="0 0 200 200" style="enable-background:new 0 0 200 200;" xmlns="http://www.w3.org/2000/svg">
  <style type="text/css">
	.st0{fill:#FFFFFF;}
	.st1{fill:none;stroke:#020203;stroke-width:0.5;stroke-linecap:square;stroke-dasharray:6,6;}
</style>
  <g>
    <path class="st0" d="M43.4,63.1h113c5.5,0,10,4.5,10,10v53c0,5.5-4.5,10-10,10h-113c-5.5,0-10-4.5-10-10v-53 C33.4,67.6,37.8,63.1,43.4,63.1z"/>
    <path class="st1" d="M43.4,63.4h113c5.4,0,9.8,4.4,9.8,9.8v53c0,5.4-4.4,9.8-9.8,9.8h-113c-5.4,0-9.8-4.4-9.8-9.8v-53 C33.6,67.7,38,63.4,43.4,63.4z"/>
  </g>
</svg>