<?xml version="1.0" encoding="utf-8"?>
<!-- Generator: Adobe Illustrator 26.0.3, SVG Export Plug-In . SVG Version: 6.00 Build 0)  -->
<svg version="1.1" id="Camada_1" xmlns="http://www.w3.org/2000/svg" xmlns:xlink="http://www.w3.org/1999/xlink" x="0px" y="0px"
	 viewBox="0 0 40 40" style="enable-background:new 0 0 40 40;" xml:space="preserve">
<style type="text/css">
	.st0{fill:#22ABE3;}
	.st1{fill:#63C0B9;}
	.st2{fill:#163960;}
	.st3{fill:#FEDC43;}
</style>
<path class="st0" d="M20.8,10.9l-0.7-4.4h-9.8c-1.5,0-2.7,1.2-2.7,2.7v18.6c0,1.5,1.2,2.7,2.7,2.7h9.3l6.7-10.2V13L20.8,10.9z"/>
<path class="st1" d="M20.1,6.5l6.2,6.5h-4.1c-1.1,0-2.1-0.9-2.1-2.1V6.5z"/>
<path class="st2" d="M19.9,20.4H12c-0.3,0-0.6,0.3-0.6,0.6c0,0.3,0.3,0.6,0.6,0.6h7.9c0.3,0,0.6-0.3,0.6-0.6
	C20.5,20.7,20.2,20.4,19.9,20.4z"/>
<path class="st2" d="M12,18.6h6.2c0.3,0,0.6-0.3,0.6-0.6c0-0.3-0.3-0.6-0.6-0.6H12c-0.3,0-0.6,0.3-0.6,0.6
	C11.4,18.3,11.6,18.6,12,18.6z"/>
<path class="st2" d="M17.9,23.5H12c-0.3,0-0.6,0.3-0.6,0.6s0.3,0.6,0.6,0.6h5.9c0.3,0,0.6-0.3,0.6-0.6S18.2,23.5,17.9,23.5z"/>
<path class="st3" d="M26.3,19c3.8,0.5,6.7,3.8,6.7,7.7c0,4.3-3.5,7.8-7.8,7.8c-2.9,0-5.5-1.6-6.8-4.1c-0.6-1.1-0.9-2.4-0.9-3.7
	c0-4.3,3.5-7.8,7.8-7.8C25.6,18.9,26,18.9,26.3,19z"/>
<path class="st2" d="M28.4,26.6l-2.5,2.7v-6.6c0-0.3-0.3-0.6-0.6-0.6c-0.3,0-0.6,0.3-0.6,0.6v6.6l-2.5-2.7c-0.2-0.2-0.6-0.3-0.9,0
	c-0.2,0.2-0.3,0.6,0,0.9l3.6,3.8c0.1,0.1,0.3,0.2,0.4,0.2c0.2,0,0.3-0.1,0.4-0.2l3.6-3.8c0.2-0.2,0.2-0.6,0-0.9
	C29,26.3,28.6,26.3,28.4,26.6z"/>
</svg>
