<?xml version="1.0" encoding="utf-8"?>
<!-- Generator: Adobe Illustrator 26.0.3, SVG Export Plug-In . SVG Version: 6.00 Build 0)  -->
<svg version="1.1" id="Camada_1" xmlns="http://www.w3.org/2000/svg" xmlns:xlink="http://www.w3.org/1999/xlink" x="0px" y="0px"
	 viewBox="0 0 375 375" style="enable-background:new 0 0 375 375;" xml:space="preserve">
<style type="text/css">
	.st0{display:none;fill:#EEEDED;}
	.st1{clip-path:url(#SVGID_00000124149896328489452920000016105810179414893235_);}
	.st2{clip-path:url(#SVGID_00000135666093295794622430000006393243730640642210_);fill:#FFFFFF;}
	.st3{clip-path:url(#SVGID_00000135666093295794622430000006393243730640642210_);fill:#FFFAFA;}
	.st4{clip-path:url(#SVGID_00000135666093295794622430000006393243730640642210_);fill:none;stroke:#eef4ff;stroke-miterlimit:10;}
	.st5{clip-path:url(#SVGID_00000135666093295794622430000006393243730640642210_);}
	.st6{fill:#FFFFFF;}
	.st7{clip-path:url(#SVGID_00000135666093295794622430000006393243730640642210_);fill:none;}
</style>
<path class="st0" d="M157,382.1c-1.7,0-3-1.3-3-3l0,0c0-1.7,1.3-3,3-3h61c1.7,0,3,1.3,3,3l0,0c0,1.7-1.3,3-3,3"/>
<g>
	<defs>
		<rect id="SVGID_1_" x="0" y="0.1" width="374.9" height="374.9"/>
	</defs>
	<clipPath id="SVGID_00000080168674909033755460000017595796441356480645_">
		<use xlink:href="#SVGID_1_"  style="overflow:visible;"/>
	</clipPath>
	<g style="clip-path:url(#SVGID_00000080168674909033755460000017595796441356480645_);">
		<defs>
			<path id="SVGID_00000147182337084227914750000016416905273376042915_" d="M0,788.1v-764c0-13.3,10.7-24,24-24h327
				c13.3,0,24,10.7,24,24v764"/>
		</defs>
		<clipPath id="SVGID_00000181079250263363207120000015804356013438176944_">
			<use xlink:href="#SVGID_00000147182337084227914750000016416905273376042915_"  style="overflow:visible;"/>
		</clipPath>
		<path style="clip-path:url(#SVGID_00000181079250263363207120000015804356013438176944_);fill:#FFFFFF;" d="M0,788.1v-764
			c0-13.3,10.7-24,24-24h327c13.3,0,24,10.7,24,24v764"/>
		<path style="clip-path:url(#SVGID_00000181079250263363207120000015804356013438176944_);fill:#FFFAFA;" d="M0,812.1V0.1h375v812"
			/>
		
			<path style="clip-path:url(#SVGID_00000181079250263363207120000015804356013438176944_);fill:none;stroke:#eef4ff;stroke-miterlimit:10;" d="
			M363.6,416.7C695.4,133,339.8,71.8,284.4,129.2c-55.4,57.4-128.3,12.5-207.2-106c-78.9-118.5-356.4,14-333.5,128.8"/>
		
			<path style="clip-path:url(#SVGID_00000181079250263363207120000015804356013438176944_);fill:none;stroke:#eef4ff;stroke-miterlimit:10;" d="
			M325.3,409c299-256-21.4-311.2-71.3-259.4C204,201.4,138.4,160.9,67.3,54C-3.8-52.9-253.8,66.6-233.2,170.1"/>
		
			<path style="clip-path:url(#SVGID_00000181079250263363207120000015804356013438176944_);fill:none;stroke:#eef4ff;stroke-miterlimit:10;" d="
			M295.4,403.1c273.4-233.8-19.6-284.2-65.3-237c-45.7,47.3-105.7,10.3-170.8-87.4C-5.6-18.9-234.3,90.3-215.4,184.8"/>
		
			<path style="clip-path:url(#SVGID_00000181079250263363207120000015804356013438176944_);fill:none;stroke:#eef4ff;stroke-miterlimit:10;" d="
			M267.2,396.5c249.3-213.3-17.8-259.3-59.5-216.2c-41.7,43.1-96.4,9.4-155.6-79.7c-59.3-89.1-267.7,10.6-250.6,96.8"/>
		
			<path style="clip-path:url(#SVGID_00000181079250263363207120000015804356013438176944_);fill:none;stroke:#eef4ff;stroke-miterlimit:10;" d="
			M236.5,390.5c223.1-191.2-15.9-232.4-53.2-193.7C146,235.5,97.1,205.2,44,125.4c-53.1-79.8-239.6,9.5-224.2,86.8"/>
		
			<path style="clip-path:url(#SVGID_00000181079250263363207120000015804356013438176944_);fill:none;stroke:#eef4ff;stroke-miterlimit:10;" d="
			M204.2,384.2c195.5-167.4-14-203.5-46.6-169.6C124.9,248.4,82,221.9,35.5,152c-46.5-69.9-210,8.3-196.5,76"/>
		<g style="clip-path:url(#SVGID_00000181079250263363207120000015804356013438176944_);">
			<path class="st6" d="M46,106.1c0-0.6,0.4-1,1-1h251c16.6,0,30,13.4,30,30v71c0,0.6-0.4,1-1,1H76c-16.6,0-30-13.4-30-30V106.1z"/>
		</g>
		
			<rect x="76" y="123.1" style="clip-path:url(#SVGID_00000181079250263363207120000015804356013438176944_);fill:none;" width="222" height="45"/>
	</g>
</g>
</svg>
