<?xml version="1.0" encoding="utf-8"?>
<!-- Generator: Adobe Illustrator 26.0.3, SVG Export Plug-In . SVG Version: 6.00 Build 0)  -->
<svg version="1.1" id="Camada_1" xmlns="http://www.w3.org/2000/svg" xmlns:xlink="http://www.w3.org/1999/xlink" x="0px" y="0px"
	 viewBox="0 0 20 20" style="enable-background:new 0 0 20 20;" xml:space="preserve">
<style type="text/css">
	.st0{fill:#C5C5C4;fill-opacity:0.42;}
	.st1{fill:#020203;}
</style>
<path class="st0" d="M4.7,1.5h11c1.7,0,3,1.3,3,3v11c0,1.7-1.3,3-3,3h-11c-1.7,0-3-1.3-3-3v-11C1.7,2.8,3,1.5,4.7,1.5z"/>
<path class="st1" d="M14.4,13.7l1.3-1.5l-5.4-6.4L4.8,12l1.3,1.5l4.1-4.7L14.4,13.7z"/>
<path class="st0" d="M14.4,13.7l1.3-1.5l-5.4-6.4L4.8,12l1.3,1.5l4.1-4.7L14.4,13.7z"/>
</svg>
