<?xml version="1.0" encoding="utf-8"?>
<!-- Generator: Adobe Illustrator 26.0.3, SVG Export Plug-In . SVG Version: 6.00 Build 0)  -->
<svg version="1.1" id="Camada_1" xmlns="http://www.w3.org/2000/svg" xmlns:xlink="http://www.w3.org/1999/xlink" x="0px" y="0px"
	 viewBox="0 0 40 40" style="enable-background:new 0 0 40 40;" xml:space="preserve">
<style type="text/css">
	.st0{fill:#EA5158;}
	.st1{fill:#F8B476;}
	.st2{fill:#E94B3F;}
</style>
<path class="st0" d="M32,13.3c0-3.1-2.5-5.6-5.6-5.6s-5.6,2.5-5.6,5.6c0,3.1,2.5,5.6,5.6,5.6S32,16.4,32,13.3z"/>
<path class="st1" d="M11.1,20.5h5.1c1.7,0,3.1,1.4,3.1,3.1v5.1c0,1.7-1.4,3.1-3.1,3.1h-5.1c-1.7,0-3.1-1.4-3.1-3.1v-5.1
	C8,21.8,9.4,20.5,11.1,20.5z"/>
<path class="st1" d="M11.1,7.7h5.1c1.7,0,3.1,1.4,3.1,3.1v5.1c0,1.7-1.4,3.1-3.1,3.1h-5.1C9.4,19,8,17.6,8,15.9v-5.1
	C8,9.1,9.4,7.7,11.1,7.7z"/>
<path class="st1" d="M23.8,20.5h5.1c1.7,0,3.1,1.4,3.1,3.1v5.1c0,1.7-1.4,3.1-3.1,3.1h-5.1c-1.7,0-3.1-1.4-3.1-3.1v-5.1
	C20.8,21.8,22.1,20.5,23.8,20.5z"/>
<path class="st2" d="M26.4,7.7c3.1,0,5.6,2.5,5.6,5.6c0,0.3,0,0.5,0,0.8c-0.4-2.7-2.7-4.9-5.6-4.9s-5.2,2.1-5.6,4.9
	c0-0.2,0-0.5,0-0.8C20.8,10.2,23.3,7.7,26.4,7.7z"/>
<path class="st1" d="M11.1,20.5h5.1c1.7,0,3.1,1.4,3.1,3.1V25c0-1.7-1.4-3.1-3.1-3.1h-5.1C9.4,22,8,23.3,8,25v-1.5
	C8,21.8,9.4,20.5,11.1,20.5z"/>
<path class="st1" d="M11.1,7.7h5.1c1.7,0,3.1,1.4,3.1,3.1v1.5c0-1.7-1.4-3.1-3.1-3.1h-5.1C9.4,9.2,8,10.6,8,12.3v-1.5
	C8,9.1,9.4,7.7,11.1,7.7z"/>
<path class="st1" d="M23.8,20.5h5.1c1.7,0,3.1,1.4,3.1,3.1V25c0-1.7-1.4-3.1-3.1-3.1h-5.1c-1.7,0-3.1,1.4-3.1,3.1v-1.5
	C20.8,21.8,22.1,20.5,23.8,20.5z"/>
</svg>
